<?xml version="1.0" encoding="UTF-8" standalone="no"?>
<!-- Generator: Adobe Illustrator 16.0.0, SVG Export Plug-In . SVG Version: 6.00 Build 0)  -->

<svg
   xmlns:dc="http://purl.org/dc/elements/1.1/"
   xmlns:cc="http://creativecommons.org/ns#"
   xmlns:rdf="http://www.w3.org/1999/02/22-rdf-syntax-ns#"
   xmlns:svg="http://www.w3.org/2000/svg"
   xmlns="http://www.w3.org/2000/svg"
   xmlns:sodipodi="http://sodipodi.sourceforge.net/DTD/sodipodi-0.dtd"
   xmlns:inkscape="http://www.inkscape.org/namespaces/inkscape"
   version="1.1"
   id="Layer_1"
   x="0px"
   y="0px"
   width="481"
   height="429.76822"
   viewBox="0 0 480.99999 429.7682"
   enable-background="new 0 0 1000 146.895"
   xml:space="preserve"
   sodipodi:docname="Google_Drive_2020.svg"
   inkscape:version="0.92.3 (2405546, 2018-03-11)"><metadata
   id="metadata11"><rdf:RDF><cc:Work
       rdf:about=""><dc:format>image/svg+xml</dc:format><dc:type
         rdf:resource="http://purl.org/dc/dcmitype/StillImage" /><dc:title></dc:title></cc:Work></rdf:RDF></metadata><defs
   id="defs9"><clipPath
     id="a"
     transform="translate(-1.419 -2.611)"><rect
       y="0"
       x="0"
       class="a"
       width="31.333"
       height="31.333"
       id="rect4" /></clipPath></defs><sodipodi:namedview
   pagecolor="#ffffff"
   bordercolor="#666666"
   borderopacity="1"
   objecttolerance="10"
   gridtolerance="10"
   guidetolerance="10"
   inkscape:pageopacity="0"
   inkscape:pageshadow="2"
   inkscape:window-width="1366"
   inkscape:window-height="705"
   id="namedview7"
   showgrid="false"
   inkscape:zoom="0.353"
   inkscape:cx="1266.3716"
   inkscape:cy="-554.04959"
   inkscape:window-x="-8"
   inkscape:window-y="-8"
   inkscape:window-maximized="1"
   inkscape:current-layer="Layer_1" />


<g
   id="g29"
   transform="scale(16.880747)"><g
     class="b"
     clip-path="url(#a)"
     id="g25"><g
       id="g23"><path
         class="c"
         d="M 3.574,24.431 4.83,26.6 a 2.966,2.966 0 0 0 1.077,1.077 L 10.4,19.91 H 1.419 a 2.959,2.959 0 0 0 0.392,1.469 z"
         transform="translate(-1.419,-2.611)"
         id="path11"
         inkscape:connector-curvature="0"
         style="fill:#0066da" /><path
         class="d"
         d="M 15.666,10.771 11.178,3 A 2.966,2.966 0 0 0 10.1,4.08 L 1.811,18.441 A 2.959,2.959 0 0 0 1.419,19.91 H 10.4 Z"
         transform="translate(-1.419,-2.611)"
         id="path13"
         inkscape:connector-curvature="0"
         style="fill:#00ac47" /><path
         class="e"
         d="M 15.666,10.771 20.154,3 A 2.866,2.866 0 0 0 18.686,2.608 H 12.647 A 3.033,3.033 0 0 0 11.179,3 Z"
         transform="translate(-1.419,-2.611)"
         id="path15"
         inkscape:connector-curvature="0"
         style="fill:#00832d" /><path
         class="f"
         d="M 20.937,19.91 H 10.4 l -4.493,7.768 a 2.87,2.87 0 0 0 1.469,0.392 h 16.581 a 3.033,3.033 0 0 0 1.468,-0.392 z"
         transform="translate(-1.419,-2.611)"
         id="path17"
         inkscape:connector-curvature="0"
         style="fill:#2684fc" /><path
         class="g"
         d="M 25.426,27.678 A 2.966,2.966 0 0 0 26.5,26.6 l 0.522,-0.9 2.5,-4.324 a 2.958,2.958 0 0 0 0.391,-1.469 h -8.959 z"
         transform="translate(-1.419,-2.611)"
         id="path19"
         inkscape:connector-curvature="0"
         style="fill:#ea4335" /><path
         class="h"
         d="M 25.376,11.261 21.231,4.081 A 2.961,2.961 0 0 0 20.154,3 l -4.488,7.768 5.271,9.139 H 29.9 a 2.959,2.959 0 0 0 -0.392,-1.469 z"
         transform="translate(-1.419,-2.611)"
         id="path21"
         inkscape:connector-curvature="0"
         style="fill:#ffba00" /></g></g></g></svg>